<svg xmlns="http://www.w3.org/2000/svg" width="500" height="500" viewBox="0 0 500 500" version="1.1">
	<path d="M 0 250.002 L 0 500.004 250.250 499.752 L 500.500 499.500 500.752 249.750 L 501.004 0 250.502 0 L 0 0 0 250.002 M 0.492 250.500 C 0.492 388, 0.608 444.101, 0.750 375.170 C 0.892 306.238, 0.892 193.738, 0.750 125.170 C 0.608 56.601, 0.492 113, 0.492 250.500 M 238 99.579 C 228.334 102.123, 219.992 107.003, 212.500 114.498 C 201.012 125.990, 196.043 138.868, 196.015 157.222 L 196 166.944 182.250 167.222 L 168.500 167.500 168.222 181.250 L 167.944 195 150.222 194.939 L 132.500 194.878 129.475 190.712 C 121.334 179.501, 108.369 178.010, 98.460 187.143 C 93.213 191.980, 91.634 196.262, 92.202 204.111 C 92.954 214.508, 100.237 221.740, 110.999 222.774 C 119.420 223.583, 128.149 218.883, 130.998 212.005 L 132.243 209 150.121 209 L 168 209 168 230 L 168 251 160.750 250.963 L 153.500 250.927 150.720 246.538 C 147.377 241.260, 139.693 236.995, 133.554 237.010 C 127.330 237.025, 119.636 241.082, 116.314 246.101 C 113.838 249.843, 113.500 251.282, 113.500 258.084 C 113.500 265.230, 113.734 266.105, 116.593 269.657 C 122.838 277.417, 130.473 280.296, 138.834 278.045 C 143.556 276.773, 149.367 272.124, 151.577 267.852 C 152.998 265.103, 153.322 265, 160.497 265 L 167.944 265 168.222 278.750 L 168.500 292.500 251.750 292.756 L 335 293.011 335 279.006 L 335 265 342.933 265 C 349.873 265, 350.941 265.240, 351.474 266.918 C 353.313 272.713, 360.746 277.733, 368.818 278.631 C 372.640 279.057, 374.509 278.633, 378.994 276.326 C 385.880 272.784, 389.809 267.404, 390.641 260.381 C 393.067 239.904, 367.258 228.732, 354.179 244.599 C 352.431 246.720, 351 249.028, 351 249.728 C 351 250.651, 348.808 251, 343 251 L 335 251 335 230 L 335 209 352.974 209 L 370.949 209 372.385 211.750 C 378.722 223.883, 395.399 226.639, 405.339 217.197 C 415.405 207.635, 413.096 190.171, 400.945 183.972 C 394.316 180.590, 389.028 180.383, 382.748 183.258 C 377.628 185.602, 372 191.145, 372 193.844 C 372 194.677, 366.827 195, 353.500 195 L 335 195 335 181 L 335 167 272.377 167 L 209.753 167 210.173 155.234 C 210.550 144.654, 210.904 142.802, 213.684 136.861 C 220.998 121.231, 235.040 112, 251.500 112 C 272.433 112, 290.259 127.423, 292.783 147.716 L 293.502 153.500 300.251 153.796 L 307 154.091 307 149.940 C 307 138.622, 300.162 123.482, 290.840 114.160 C 277.366 100.686, 256.097 94.817, 238 99.579 M 182 230 L 182 279 213.500 279 L 245 279 245 264.526 L 245 250.051 242.250 248.615 C 232.658 243.605, 228.424 231.268, 232.908 221.395 C 242.167 201.008, 272.062 207.529, 272.393 230.008 C 272.497 237.051, 268.721 243.958, 262.970 247.242 L 259.015 249.500 259.008 264.250 L 259 279 290 279 L 321 279 321 230 L 321 181 251.500 181 L 182 181 182 230 M 111 195.709 C 105.925 197.576, 104.382 203.382, 108 207 C 110.499 209.499, 115.161 209.584, 117.345 207.171 C 119.043 205.295, 119.544 200.360, 118.235 198.400 C 117.549 197.373, 113.519 194.903, 112.816 195.079 C 112.642 195.122, 111.825 195.406, 111 195.709 M 386.550 197.359 C 383.380 200.529, 383.293 203.988, 386.314 206.826 C 389.488 209.808, 393.366 209.622, 395.927 206.365 C 398.459 203.146, 398.549 200.870, 396.250 198.153 C 393.339 194.713, 389.509 194.400, 386.550 197.359 M 247.189 225.039 C 242.911 229.024, 245.838 237, 251.578 237 C 255.190 237, 258.333 233.743, 258.333 230 C 258.333 223.913, 251.610 220.920, 247.189 225.039 M 129 253 C 123.746 258.254, 129.739 267.316, 136.212 263.906 C 139.203 262.330, 139.966 261.085, 139.985 257.750 C 140.004 254.326, 136.808 251, 133.500 251 C 132.125 251, 130.100 251.900, 129 253 M 365.073 253.635 C 363.933 255.084, 363 257.129, 363 258.180 C 363 260.729, 367.384 265, 370 265 C 372.616 265, 377 260.729, 377 258.180 C 377 254.934, 373.164 251, 370 251 C 368.107 251, 366.447 251.888, 365.073 253.635 M 106 330.797 L 106 351.594 109.792 355.297 L 113.584 359 127.589 359 L 141.594 359 145.297 355.208 L 149 351.416 149 330.708 L 149 310 143 310 L 137 310 137 328.345 C 137 349.954, 136.980 350, 127.606 350 C 117.638 350, 118 350.793, 118 328.965 L 118 310 112 310 L 106 310 106 330.797 M 161 334.500 L 161 359 167 359 L 173 359 173 344.417 C 173 333.197, 173.288 329.928, 174.250 330.246 C 174.938 330.473, 179.078 337.035, 183.451 344.829 L 191.401 359 197.201 359 L 203 359 203 334.500 L 203 310 197.027 310 L 191.055 310 190.777 324.123 L 190.500 338.246 182.637 324.123 L 174.773 310 167.887 310 L 161 310 161 334.500 M 216 334.500 L 216 359 233.500 359 L 251 359 251 354 L 251 349 239.500 349 L 228 349 228 329.500 L 228 310 222 310 L 216 310 216 334.500 M 261.703 313.792 L 258 317.584 258 334.289 L 258 350.994 261.616 354.997 L 265.233 359 279.913 359 L 294.594 359 298.297 355.208 L 302 351.416 302 334.411 L 302 317.406 298.208 313.703 L 294.416 310 279.911 310 L 265.406 310 261.703 313.792 M 315.703 313.792 L 312 317.584 312 334.589 L 312 351.594 315.792 355.297 L 319.584 359 332.089 359 L 344.594 359 348.297 355.208 C 351.506 351.921, 352 350.788, 352 346.708 L 352 342 346 342 C 340.095 342, 340 342.044, 340 344.800 C 340 348.821, 338.289 350, 332.455 350 C 324.572 350, 324 348.909, 324 333.871 C 324 325.505, 324.395 321.005, 325.200 320.200 C 325.860 319.540, 328.920 319, 332 319 C 338.280 319, 340 320.118, 340 324.200 C 340 326.956, 340.095 327, 346 327 L 352 327 352 322.203 C 352 317.968, 351.556 316.972, 348.208 313.703 L 344.416 310 331.911 310 L 319.406 310 315.703 313.792 M 361 334.500 L 361 359 367.500 359 L 374 359 374 352.056 C 374 346.285, 374.380 344.676, 376.250 342.532 L 378.500 339.953 383.969 349.476 L 389.439 359 395.719 359 C 399.174 359, 402 358.784, 402 358.519 C 402 358.255, 400.491 355.668, 398.646 352.769 C 396.802 349.871, 393.011 343.847, 390.222 339.382 L 385.152 331.264 393.092 321.511 C 397.459 316.146, 401.276 311.362, 401.575 310.878 C 401.874 310.395, 399.054 310.022, 395.309 310.049 L 388.500 310.098 381.500 319.299 L 374.500 328.500 374.212 319.250 L 373.925 310 367.462 310 L 361 310 361 334.500 M 272.200 320.200 C 270.534 321.866, 270.534 347.134, 272.200 348.800 C 272.893 349.493, 276.210 350, 280.045 350 C 289.590 350, 290 349.354, 290 334.326 C 290 319.626, 289.586 319, 279.871 319 C 276.171 319, 272.886 319.514, 272.200 320.200 M 63 384 C 63 390.444, 63.292 392, 64.500 392 C 65.708 392, 66 390.444, 66 384 C 66 377.556, 65.708 376, 64.500 376 C 63.292 376, 63 377.556, 63 384 M 76 384 C 76 391.258, 76.180 392, 77.945 392 C 79.556 392, 79.943 391.184, 80.195 387.250 L 80.500 382.500 83.500 387.248 C 85.212 389.958, 87.251 391.997, 88.250 391.998 C 89.771 392, 90 390.953, 90 384 C 90 377.684, 89.695 376, 88.552 376 C 87.511 376, 87.020 377.472, 86.802 381.241 L 86.500 386.483 83.146 381.241 C 81.034 377.942, 79.089 376, 77.896 376 C 76.193 376, 76 376.813, 76 384 M 99 377.500 C 99 378.333, 99.889 379, 101 379 C 102.795 379, 103 379.667, 103 385.500 C 103 391.333, 103.205 392, 105 392 C 106.795 392, 107 391.333, 107 385.500 C 107 379.667, 107.205 379, 109 379 C 110.111 379, 111 378.333, 111 377.500 C 111 376.333, 109.667 376, 105 376 C 100.333 376, 99 376.333, 99 377.500 M 120 384 L 120 392 125.083 392 C 128.702 392, 130.048 391.640, 129.756 390.750 C 129.530 390.063, 128.143 389.358, 126.673 389.184 C 123.015 388.751, 122.860 385, 126.500 385 C 127.875 385, 129 384.550, 129 384 C 129 383.450, 127.875 383, 126.500 383 C 122.860 383, 123.015 379.249, 126.673 378.816 C 128.143 378.642, 129.530 377.938, 129.756 377.250 C 130.048 376.360, 128.702 376, 125.083 376 L 120 376 120 384 M 141.201 378.028 C 138.186 380.836, 137.552 384.233, 139.382 387.771 C 141.034 390.966, 142.774 392, 146.500 392 C 150.228 392, 151.966 390.966, 153.622 387.764 C 155.580 383.977, 154.459 382.766, 149.382 383.182 C 145.315 383.515, 144.413 385.265, 148.018 385.827 C 150.880 386.273, 149.957 388.427, 146.740 388.810 C 141.471 389.437, 140.402 380.690, 145.588 379.388 C 147.027 379.027, 148.639 379.239, 149.273 379.873 C 150.639 381.239, 154 381.370, 154 380.057 C 154 378.358, 149.621 376, 146.466 376 C 144.745 376, 142.413 376.898, 141.201 378.028 M 163 384 C 163 391.246, 163.183 392, 164.937 392 C 166.390 392, 166.952 391.189, 167.189 388.750 L 167.505 385.500 169.278 388.750 C 170.353 390.720, 171.829 392, 173.026 392 C 175.415 392, 175.455 391.624, 173.402 388.491 C 171.939 386.257, 171.939 385.919, 173.402 384.455 C 177.315 380.542, 174.105 376, 167.429 376 L 163 376 163 384 M 186.647 383.200 C 183.469 391.932, 183.464 392, 186 392 C 187.111 392, 188 391.333, 188 390.500 C 188 389.497, 189.003 389, 191.031 389 C 192.803 389, 194.302 389.623, 194.638 390.500 C 194.955 391.325, 196.049 392, 197.069 392 C 198.801 392, 198.745 391.490, 196.212 384.250 C 194.101 378.218, 193.035 376.434, 191.402 376.200 C 189.625 375.947, 188.897 377.018, 186.647 383.200 M 207 377.500 C 207 378.333, 207.889 379, 209 379 C 210.795 379, 211 379.667, 211 385.500 C 211 391.333, 211.205 392, 213 392 C 214.795 392, 215 391.333, 215 385.500 C 215 379.667, 215.205 379, 217 379 C 218.111 379, 219 378.333, 219 377.500 C 219 376.333, 217.667 376, 213 376 C 208.333 376, 207 376.333, 207 377.500 M 228 384 L 228 392 232.500 392 C 235.833 392, 237 391.611, 237 390.500 C 237 389.492, 235.992 389, 233.927 389 C 231.540 389, 230.927 388.609, 231.185 387.250 C 231.385 386.195, 232.605 385.374, 234.259 385.184 C 235.766 385.010, 237 384.477, 237 384 C 237 383.523, 235.766 382.990, 234.259 382.816 C 232.605 382.626, 231.385 381.805, 231.185 380.750 C 230.927 379.391, 231.540 379, 233.927 379 C 235.992 379, 237 378.508, 237 377.500 C 237 376.389, 235.833 376, 232.500 376 L 228 376 228 384 M 247 384 L 247 392 251.545 392 C 255.038 392, 256.659 391.432, 258.545 389.545 C 264.097 383.994, 259.965 376, 251.545 376 L 247 376 247 384 M 284.667 378.065 C 282.575 381.052, 283.712 383.750, 287.605 385.035 C 289.472 385.651, 291 386.795, 291 387.578 C 291 389.324, 289.602 389.393, 287.011 387.775 C 285.597 386.891, 284.746 386.854, 283.961 387.639 C 282.271 389.329, 285.585 392, 289.371 392 C 293.205 392, 295 390.476, 295 387.220 C 295 385.371, 294.106 384.488, 291 383.268 C 286.805 381.620, 285.577 379, 289 379 C 290.100 379, 291 379.450, 291 380 C 291 380.550, 291.900 381, 293 381 C 295.285 381, 295.404 380.623, 293.965 377.934 C 292.507 375.210, 286.609 375.293, 284.667 378.065 M 306.174 378.314 C 301.167 383.644, 304.872 392, 312.242 392 C 319.193 392, 322.540 383.449, 317.545 378.455 C 314.298 375.207, 309.153 375.143, 306.174 378.314 M 329 384 L 329 392 333.500 392 C 336.833 392, 338 391.611, 338 390.500 C 338 389.567, 337.056 389, 335.500 389 C 333.090 389, 333 388.767, 333 382.500 C 333 376.667, 332.795 376, 331 376 C 329.167 376, 329 376.667, 329 384 M 346.189 382.621 C 346.651 389.881, 348.189 392, 353 392 C 357.811 392, 359.349 389.881, 359.811 382.621 C 360.204 376.457, 360.090 376, 358.164 376 C 356.325 376, 356.062 376.693, 355.798 382.250 C 355.516 388.171, 355.368 388.500, 353 388.500 C 350.632 388.500, 350.484 388.171, 350.202 382.250 C 349.938 376.693, 349.675 376, 347.836 376 C 345.910 376, 345.796 376.457, 346.189 382.621 M 368 377.500 C 368 378.433, 368.944 379, 370.500 379 C 372.910 379, 373 379.233, 373 385.500 C 373 390.611, 373.321 392, 374.500 392 C 375.679 392, 376 390.611, 376 385.500 C 376 379.667, 376.205 379, 378 379 C 379.111 379, 380 378.333, 380 377.500 C 380 376.333, 378.667 376, 374 376 C 369.333 376, 368 376.333, 368 377.500 M 389 384 C 389 391.333, 389.167 392, 391 392 C 392.833 392, 393 391.333, 393 384 C 393 376.667, 392.833 376, 391 376 C 389.167 376, 389 376.667, 389 384 M 404.455 378.455 C 399.399 383.510, 402.811 392, 409.898 392 C 414.767 392, 418 388.752, 418 383.860 C 418 376.696, 409.575 373.334, 404.455 378.455 M 427 384 C 427 391.258, 427.180 392, 428.945 392 C 430.556 392, 430.943 391.184, 431.195 387.250 L 431.500 382.500 434.500 387.248 C 436.212 389.958, 438.251 391.997, 439.250 391.998 C 440.771 392, 441 390.953, 441 384 C 441 377.684, 440.695 376, 439.552 376 C 438.511 376, 438.020 377.472, 437.802 381.241 L 437.500 386.483 434.146 381.241 C 432.034 377.942, 430.089 376, 428.896 376 C 427.193 376, 427 376.813, 427 384 M 167 381 C 167 382.333, 167.667 383, 169 383 C 170.333 383, 171 382.333, 171 381 C 171 379.667, 170.333 379, 169 379 C 167.667 379, 167 379.667, 167 381 M 250 384 C 250 388.551, 250.207 389, 252.300 389 C 255.319 389, 257 387.212, 257 384 C 257 380.788, 255.319 379, 252.300 379 C 250.207 379, 250 379.449, 250 384 M 308.536 380.960 C 306.122 383.628, 307.199 387.761, 310.528 388.596 C 313.726 389.399, 316 387.521, 316 384.078 C 316 379.105, 311.802 377.351, 308.536 380.960 M 407.200 380.200 C 406.540 380.860, 406 382.570, 406 384 C 406 387.003, 407.649 389, 410.129 389 C 412.403 389, 415 386.334, 415 384 C 415 380.063, 409.847 377.553, 407.200 380.200 M 190.675 382.405 C 189.646 385.087, 189.855 386, 191.500 386 C 193.143 386, 193.238 385.465, 192.105 382.573 C 191.404 380.785, 191.301 380.773, 190.675 382.405" stroke="none" fill="black" fill-rule="evenodd"/>
</svg>